Coordinates
version=1
nRows=18
nColumns=63
inDegrees=yes

Units are S.I. units (second, meters, Newtons, ...)
If the header above contains a line with 'inDegrees', this indicates whether rotational values are in degrees (yes) or radians (no).

endheader
time	pelvis_tilt	pelvis_list	pelvis_rotation	pelvis_tx	pelvis_ty	pelvis_tz	hip_flexion_r	hip_adduction_r	hip_rotation_r	knee_angle_r	knee_angle_r_beta	ankle_angle_r	subtalar_angle_r	mtp_angle_r	hip_flexion_l	hip_adduction_l	hip_rotation_l	knee_angle_l	knee_angle_l_beta	ankle_angle_l	subtalar_angle_l	mtp_angle_l	L5_S1_Flex_Ext	L5_S1_Lat_Bending	L5_S1_axial_rotation	L4_L5_Flex_Ext	L4_L5_Lat_Bending	L4_L5_axial_rotation	L3_L4_Flex_Ext	L3_L4_Lat_Bending	L3_L4_axial_rotation	L2_L3_Flex_Ext	L2_L3_Lat_Bending	L2_L3_axial_rotation	L1_L2_Flex_Ext	L1_L2_Lat_Bending	L1_L2_axial_rotation	L1_T12_Flex_Ext	L1_T12_Lat_Bending	L1_T12_axial_rotation	Abs_r3	Abs_r2	Abs_r1	Abs_t1	Abs_t2	neck_flexion	neck_bending	neck_rotation	arm_flex_r	arm_add_r	arm_rot_r	elbow_flex_r	pro_sup_r	wrist_flex_r	wrist_dev_r	arm_flex_l	arm_add_l	arm_rot_l	elbow_flex_l	pro_sup_l	wrist_flex_l	wrist_dev_l
0.000000	-2.044609	-3.182187	94.900133	0.196371	0.794838	0.718897	-3.433169	-0.794498	-12.043527	3.602868	0.062882	31.191771	11.708362	0.000000	-2.002796	2.243035	17.120156	0.364322	0.006359	30.041198	-10.273031	0.000000	0.321517	-0.134138	-0.116765	0.597090	-0.178404	-0.124063	0.528221	-0.326143	-0.124063	0.367462	-0.326143	-0.102170	0.298561	-0.273534	-0.094872	0.183715	-0.207780	-0.087574	2.296565	-1.517396	-0.649415	0.000000	0.000000	23.632015	-2.986302	-7.245808	24.229563	-9.650618	89.821132	53.474961	42.735943	4.583752	13.149925	16.793067	-11.854833	64.082262	65.210927	74.649186	-1.300000	8.472976
0.016667	-2.103932	-3.086829	94.040342	0.198120	0.795038	0.718149	-3.408098	-0.923464	-11.471814	3.789524	0.066140	31.583945	12.550406	0.000000	-2.345185	2.292756	15.444258	0.376247	0.006567	30.386887	-8.975440	0.000000	0.322739	-0.139825	0.044590	0.599359	-0.185968	0.047377	0.530229	-0.339971	0.047377	0.368859	-0.339971	0.039016	0.299696	-0.285132	0.036229	0.184413	-0.216589	0.033442	2.305296	-1.581731	0.247995	0.000000	0.000000	23.012153	-3.236809	-7.175763	24.111471	-9.430418	90.092578	53.191953	37.725098	3.943849	13.473283	16.829401	-11.995486	64.421557	65.356499	73.002164	-2.642178	7.854999
0.033333	-2.148942	-2.996946	93.281028	0.199617	0.795170	0.717562	-3.397039	-1.033446	-10.969767	3.947843	0.068903	31.876782	13.223431	0.000000	-2.657922	2.335553	14.053045	0.389277	0.006794	30.586092	-8.027391	0.000000	0.323433	-0.142806	0.184591	0.600648	-0.189932	0.196128	0.531368	-0.347218	0.196128	0.369652	-0.347218	0.161517	0.300340	-0.291210	0.149980	0.184810	-0.221206	0.138443	2.310250	-1.615450	1.026638	0.000000	0.000000	22.548396	-3.427794	-7.062731	24.074410	-9.268075	90.405782	53.003446	33.824951	3.368585	13.614221	16.862912	-12.108835	64.722695	65.471628	71.630209	-3.618415	7.450505
0.050000	-2.181590	-2.913334	92.615318	0.200881	0.795240	0.717125	-3.396778	-1.126639	-10.532616	4.081283	0.071232	32.080083	13.742749	0.000000	-2.940648	2.372600	12.919185	0.403138	0.007036	30.657461	-7.390106	0.000000	0.323664	-0.143435	0.304971	0.601076	-0.190769	0.324031	0.531747	-0.348748	0.324031	0.369916	-0.348748	0.266849	0.300554	-0.292493	0.247789	0.184942	-0.222181	0.228728	2.311899	-1.622568	1.696156	0.000000	0.000000	22.226137	-3.566012	-6.913031	24.106041	-9.157779	90.747908	52.898323	30.921866	2.856708	13.598947	16.894699	-12.196639	64.988282	65.558314	70.510413	-4.267512	7.236682
0.066667	-2.203826	-2.836788	92.036342	0.201930	0.795252	0.716828	-3.404098	-1.205239	-10.155597	4.193304	0.073187	32.203645	14.123675	0.000000	-3.193005	2.405075	12.015349	0.417553	0.007288	30.619642	-7.024807	0.000000	0.323498	-0.142068	0.407464	0.600768	-0.188950	0.432931	0.531475	-0.345424	0.432931	0.369726	-0.345424	0.356531	0.300400	-0.289705	0.331065	0.184847	-0.220063	0.305598	2.310714	-1.607100	2.266193	0.000000	0.000000	22.030767	-3.658219	-6.732981	24.194027	-9.093717	91.106120	52.865465	28.902204	2.406969	13.453671	16.925863	-12.260655	65.220925	65.618557	69.619867	-4.628272	7.190714
0.083333	-2.217599	-2.768104	91.537226	0.202784	0.795215	0.716658	-3.415784	-1.271442	-9.833941	4.287365	0.074829	32.257271	14.381523	0.000000	-3.414632	2.434152	11.314206	0.432247	0.007544	30.491284	-6.892716	0.000000	0.323001	-0.139059	0.493804	0.599846	-0.184948	0.524667	0.530659	-0.338108	0.524667	0.369158	-0.338108	0.432079	0.299939	-0.283569	0.401216	0.184563	-0.215402	0.370353	2.307165	-1.573062	2.746392	0.000000	0.000000	21.947680	-3.711170	-6.528899	24.326028	-9.070079	91.467583	52.893754	27.652329	2.018116	13.204605	16.957504	-12.302643	65.423230	65.654360	68.935666	-4.739495	7.289789
0.100000	-2.224859	-2.708078	91.111099	0.203461	0.795132	0.716606	-3.428619	-1.327444	-9.562882	4.366923	0.076217	32.250758	14.531606	0.000000	-3.605172	2.461008	10.788426	0.446945	0.007801	30.291034	-6.955056	0.000000	0.322239	-0.134763	0.565726	0.598431	-0.179235	0.601083	0.529407	-0.327663	0.601083	0.368287	-0.327663	0.495010	0.299232	-0.274809	0.459652	0.184128	-0.208748	0.424294	2.301724	-1.524469	3.146396	0.000000	0.000000	21.962269	-3.731618	-6.307103	24.489706	-9.081053	91.819460	52.972072	27.058603	1.688898	12.877956	16.990725	-12.324361	65.597803	65.667722	68.434900	-4.639985	7.511091
0.116667	-2.227555	-2.657506	90.751090	0.203979	0.795011	0.716661	-3.439388	-1.375441	-9.337654	4.435438	0.077413	32.193908	14.589239	0.000000	-3.764264	2.486819	10.410679	0.461370	0.008052	30.037542	-7.173048	0.000000	0.321279	-0.129536	0.624961	0.596646	-0.172283	0.664021	0.527829	-0.314953	0.664021	0.367189	-0.314953	0.546841	0.298339	-0.264149	0.507781	0.183579	-0.200651	0.468721	2.294861	-1.465334	3.475847	0.000000	0.000000	22.059926	-3.726320	-6.073911	24.672722	-9.120828	92.148915	53.089300	27.007389	1.418063	12.499935	17.026625	-12.327568	65.747249	65.660643	68.094662	-4.368542	7.831808
0.133333	-2.227638	-2.617183	90.450326	0.204359	0.794858	0.716811	-3.444875	-1.417628	-9.153488	4.496369	0.078476	32.096519	14.569736	0.000000	-3.891550	2.512760	10.153634	0.475248	0.008295	29.749455	-7.507915	0.000000	0.320185	-0.123731	0.673245	0.594615	-0.164563	0.715323	0.526031	-0.300841	0.715323	0.365939	-0.300841	0.589090	0.297323	-0.252313	0.547012	0.182953	-0.191660	0.504934	2.287047	-1.399674	3.744388	0.000000	0.000000	22.226044	-3.702029	-5.835641	24.862738	-9.183594	92.443112	53.234320	27.385049	1.204362	12.096753	17.066305	-12.314022	65.874176	65.635125	67.892044	-3.963969	8.229125
0.150000	-2.227056	-2.587905	90.201935	0.204618	0.794678	0.717047	-3.441864	-1.456202	-9.005620	4.553174	0.079468	31.968392	14.488409	0.000000	-3.986671	2.540009	9.989960	0.488303	0.008522	29.445421	-7.920879	0.000000	0.319023	-0.117705	0.712312	0.592458	-0.156548	0.756831	0.524124	-0.286188	0.756831	0.364612	-0.286188	0.623273	0.296245	-0.240024	0.578753	0.182290	-0.182325	0.534234	2.278752	-1.331504	3.961663	0.000000	0.000000	22.446016	-3.665501	-5.598612	25.047414	-9.263538	92.689216	53.396013	28.077946	1.046544	11.694617	17.110866	-12.285482	65.981188	65.593168	67.804140	-3.465068	8.680228
0.166667	-2.227760	-2.570469	89.999046	0.204776	0.794477	0.717357	-3.427138	-1.493358	-8.889281	4.609313	0.080448	31.819326	14.360574	0.000000	-4.049267	2.569740	9.892329	0.500259	0.008731	29.144089	-8.373161	0.000000	0.317861	-0.111812	0.743894	0.590299	-0.148710	0.790387	0.522214	-0.271859	0.790387	0.363283	-0.271859	0.650907	0.295166	-0.228007	0.604414	0.181626	-0.173197	0.557920	2.270448	-1.264838	4.137314	0.000000	0.000000	22.705234	-3.623491	-5.369141	25.214414	-9.354849	92.874390	53.563261	28.972442	0.943356	11.319739	17.161408	-12.243706	66.070892	65.536772	67.808040	-2.910640	9.162304
0.183333	-2.229082	-2.568758	89.842206	0.204869	0.794250	0.717672	-3.389694	-1.524775	-8.785319	4.670547	0.081516	31.685581	14.209287	0.000000	-4.081513	2.598677	9.840202	0.510782	0.008915	28.877997	-8.790127	0.000000	0.317492	-0.107709	0.769166	0.589615	-0.143253	0.817239	0.521608	-0.261884	0.817239	0.362862	-0.261884	0.673020	0.294823	-0.219641	0.624947	0.181415	-0.166842	0.576874	2.267816	-1.218429	4.277870	0.000000	0.000000	23.061527	-3.555907	-5.218539	25.307114	-9.437068	92.906279	53.691956	30.159010	1.028714	11.016938	17.200656	-12.185376	66.108008	65.460603	67.960188	-2.408299	9.616247
0.200000	-2.244907	-2.578865	89.716983	0.204886	0.794050	0.718040	-3.338173	-1.572766	-8.733074	4.754414	0.082980	31.529210	14.069071	0.000000	-4.073238	2.641663	9.684095	0.517729	0.009036	28.718320	-9.026109	0.000000	0.316230	-0.104639	0.792246	0.587270	-0.139170	0.841761	0.519534	-0.254419	0.841761	0.361419	-0.254419	0.693215	0.293651	-0.213380	0.643700	0.180694	-0.162086	0.594184	2.258796	-1.183696	4.406233	0.000000	0.000000	23.350529	-3.541115	-5.065156	25.344022	-9.507498	92.890807	53.785723	30.618219	1.068816	10.939239	17.258399	-12.118724	66.162428	65.380931	67.918738	-2.001263	10.086917
0.216667	-2.281206	-2.605516	89.600491	0.204890	0.793865	0.718468	-3.260823	-1.637838	-8.637865	4.855488	0.084744	31.367596	13.866228	0.000000	-4.021914	2.703156	9.468845	0.522522	0.009120	28.646661	-9.155732	0.000000	0.314490	-0.103748	0.817292	0.584039	-0.137985	0.868373	0.516676	-0.252253	0.868373	0.359431	-0.252253	0.715131	0.292035	-0.211563	0.664050	0.179700	-0.160706	0.612969	2.246370	-1.173621	4.545535	0.000000	0.000000	23.579702	-3.566916	-4.911420	25.283474	-9.565308	92.700238	53.826148	30.970461	1.157863	10.974785	17.322347	-12.049046	66.184253	65.293956	67.965764	-1.624362	10.482189
0.233333	-2.328870	-2.650054	89.500487	0.204859	0.793692	0.718967	-3.147243	-1.719900	-8.633250	4.984700	0.086999	31.253575	13.783557	0.000000	-3.929318	2.774627	9.187412	0.523414	0.009135	28.656640	-9.142899	0.000000	0.313263	-0.104064	0.843091	0.581761	-0.138405	0.895784	0.514660	-0.253022	0.895784	0.358029	-0.253022	0.737705	0.290896	-0.212208	0.685011	0.178999	-0.161195	0.632318	2.237608	-1.177195	4.689019	0.000000	0.000000	23.737983	-3.633651	-4.762492	25.159254	-9.616731	92.432676	53.832953	30.679525	1.267645	11.130466	17.430496	-11.976787	66.261904	65.220829	67.798942	-1.396412	10.905076
0.250000	-2.383915	-2.714695	89.408150	0.204815	0.793506	0.719539	-2.998484	-1.808015	-8.665465	5.118318	0.089332	31.190622	13.776326	0.000000	-3.795416	2.852900	8.897036	0.525185	0.009166	28.743669	-9.061024	0.000000	0.313150	-0.105833	0.868852	0.581551	-0.140758	0.923155	0.514474	-0.257322	0.923155	0.357899	-0.257322	0.760245	0.290791	-0.215815	0.705942	0.178934	-0.163935	0.651639	2.236799	-1.197204	4.832293	0.000000	0.000000	23.862816	-3.715036	-4.662129	24.996602	-9.664896	92.096877	53.838464	29.819436	1.374293	11.443964	17.604489	-11.916982	66.449209	65.143573	67.557545	-1.332520	11.192517
0.266667	-2.435830	-2.798326	89.326445	0.204759	0.793303	0.720123	-2.819743	-1.888398	-8.677758	5.249970	0.091629	31.192605	13.785534	0.000000	-3.631922	2.923965	8.615882	0.525192	0.009166	28.889107	-8.901402	0.000000	0.315911	-0.107620	0.893368	0.586678	-0.143135	0.949204	0.519010	-0.261667	0.949204	0.361054	-0.261667	0.781697	0.293355	-0.219459	0.725862	0.180511	-0.166703	0.670026	2.256519	-1.217419	4.968647	0.000000	0.000000	23.951743	-3.823082	-4.590036	24.781459	-9.715157	91.629182	53.839802	28.961045	1.501164	11.894042	17.810639	-11.856572	66.660422	65.048630	67.574102	-1.300247	11.354251
0.283333	-2.486099	-2.894336	89.230229	0.204741	0.793077	0.720702	-2.617278	-1.963748	-8.657293	5.373238	0.093781	31.266334	13.837658	0.000000	-3.454161	2.989580	8.306057	0.522502	0.009119	29.071351	-8.644279	0.000000	0.320781	-0.110549	0.924677	0.595723	-0.147030	0.982469	0.527012	-0.268789	0.982469	0.366621	-0.268789	0.809092	0.297878	-0.225432	0.751300	0.183295	-0.171240	0.693507	2.291310	-1.250553	5.142773	0.000000	0.000000	24.034295	-3.943921	-4.632280	24.491031	-9.773000	90.964614	53.845746	27.671781	1.650415	12.606095	18.047405	-11.796197	66.927924	64.952479	67.703926	-1.397125	11.399122
